HIERARCHY
ROOT joint_0
{
	OFFSET 0.000000 0.000000 0.000000
	CHANNELS 6 Xposition Yposition Zposition Zrotation Yrotation Xrotation 
	JOINT joint_1
	{
		OFFSET 7.566162 2.250183 114.799927
		CHANNELS 3 Zrotation Yrotation Xrotation
		JOINT joint_2
		{
			OFFSET -5.201660 -0.414001 104.936035
			CHANNELS 3 Zrotation Yrotation Xrotation
			JOINT joint_3
			{
				OFFSET -6.923584 -0.419739 104.718018
				CHANNELS 3 Zrotation Yrotation Xrotation
				JOINT joint_4
				{
					OFFSET 3.108887 2.881104 149.449951
					CHANNELS 3 Zrotation Yrotation Xrotation
					JOINT joint_5
					{
						OFFSET 19.988770 5.920349 90.786987
						CHANNELS 3 Zrotation Yrotation Xrotation
						End Site
						{
							OFFSET 0.000000 0.000000 0.000000
						}
					}
				}
				JOINT joint_6
				{
					OFFSET 9.283936 -30.015930 84.410034
					CHANNELS 3 Zrotation Yrotation Xrotation
					JOINT joint_7
					{
						OFFSET 47.243164 -155.716736 -23.241089
						CHANNELS 3 Zrotation Yrotation Xrotation
						JOINT joint_8
						{
							OFFSET 31.323730 -15.356873 -268.798950
							CHANNELS 3 Zrotation Yrotation Xrotation
							JOINT joint_9
							{
								OFFSET 28.122314 -2.114624 -262.450012
								CHANNELS 3 Zrotation Yrotation Xrotation
								End Site
								{
									OFFSET 0.000000 0.000000 0.000000
								}
							}
						}
					}
				}
				JOINT joint_10
				{
					OFFSET -5.580566 33.311218 83.498047
					CHANNELS 3 Zrotation Yrotation Xrotation
					JOINT joint_11
					{
						OFFSET -22.773438 160.515381 -27.138062
						CHANNELS 3 Zrotation Yrotation Xrotation
						JOINT joint_12
						{
							OFFSET 27.004395 30.848877 -267.937988
							CHANNELS 3 Zrotation Yrotation Xrotation
							JOINT joint_13
							{
								OFFSET 32.625000 14.824585 -261.518005
								CHANNELS 3 Zrotation Yrotation Xrotation
								End Site
								{
									OFFSET 0.000000 0.000000 0.000000
								}
							}
						}
					}
				}
			}
		}
	}
	JOINT joint_14
	{
		OFFSET 20.623535 -83.447632 -106.174011
		CHANNELS 3 Zrotation Yrotation Xrotation
		JOINT joint_15
		{
			OFFSET 0.661865 -23.563843 -459.915039
			CHANNELS 3 Zrotation Yrotation Xrotation
			JOINT joint_16
			{
				OFFSET -23.461670 -28.727966 -444.760971
				CHANNELS 3 Zrotation Yrotation Xrotation
				JOINT joint_17
				{
					OFFSET 178.992920 54.047363 -80.113001
					CHANNELS 3 Zrotation Yrotation Xrotation
					End Site
					{
						OFFSET 0.000000 0.000000 0.000000
					}
				}
			}
		}
	}
	JOINT joint_18
	{
		OFFSET -19.571533 84.686279 -105.380005
		CHANNELS 3 Zrotation Yrotation Xrotation
		JOINT joint_19
		{
			OFFSET -22.949951 3.639404 -459.933044
			CHANNELS 3 Zrotation Yrotation Xrotation
			JOINT joint_20
			{
				OFFSET -33.690674 4.092651 -445.010971
				CHANNELS 3 Zrotation Yrotation Xrotation
				JOINT joint_21
				{
					OFFSET 187.419678 18.953857 -76.759001
					CHANNELS 3 Zrotation Yrotation Xrotation
					End Site
					{
						OFFSET 0.000000 0.000000 0.000000
					}
				}
			}
		}
	}
}
MOTION
Frames: 13
Frame Time: 0.016667
-3457.822021 897.419983 1111.431030 -8.491286 1.370557 -0.731897 -0.660005 -0.686867 0.521266 -0.686749 0.030236 -0.123698 -0.670645 -0.102081 0.123971 0.038742 2.050694 -0.684028 0.000000 0.000000 0.000000 1.071367 2.501387 -0.770970 0.565394 4.344067 4.954522 0.037218 1.409087 0.522071 0.000000 0.000000 0.000000 3.172610 3.716552 0.240470 -0.341634 2.334852 -5.421640 0.463718 2.697545 2.114757 0.000000 0.000000 0.000000 -0.870966 0.385532 -0.115831 -0.794642 -1.135927 0.431053 -0.762807 -1.479733 0.105782 0.000000 0.000000 0.000000 0.221387 -1.507180 2.434863 0.371288 1.992467 -0.385049 0.268608 -2.015520 0.313832 0.000000 0.000000 0.000000 
-3456.626709 897.587341 1111.467041 -8.503594 1.558768 -0.783962 -0.685454 -0.287934 0.493812 -0.713821 0.023278 -0.140576 -0.695879 -0.066730 0.132175 0.049052 1.376654 -0.569539 0.000000 0.000000 0.000000 0.879833 2.649060 -0.935156 0.550930 4.527395 4.981855 0.099237 0.553118 0.959034 0.000000 0.000000 0.000000 3.066851 3.974227 0.312349 -0.290592 2.588053 -5.571910 0.369628 1.663706 1.978921 0.000000 0.000000 0.000000 -0.865542 0.254534 -0.092151 -0.794311 -1.150000 0.461526 -0.760579 -1.510720 0.116167 0.000000 0.000000 0.000000 0.217669 -1.644863 2.492368 0.372727 1.989245 -0.430907 0.266388 -2.031968 0.314588 0.000000 0.000000 0.000000 
-3454.840820 897.701111 1111.416992 -8.529000 1.951062 -0.874560 -0.709833 -0.119316 0.478272 -0.739103 0.024776 -0.150493 -0.720015 -0.053733 0.138056 0.055026 0.665032 -0.420098 0.000000 0.000000 0.000000 0.803506 2.810501 -1.081572 0.553791 4.728127 4.988579 0.158451 -0.015360 1.368468 0.000000 0.000000 0.000000 2.947009 4.228355 0.388719 -0.250067 2.844412 -5.680405 0.294276 0.959096 1.782784 0.000000 0.000000 0.000000 -0.871539 -0.041784 -0.031058 -0.809975 -1.217881 0.500810 -0.777642 -1.541463 0.117899 0.000000 0.000000 0.000000 0.233571 -1.932150 2.587851 0.394866 1.909684 -0.465667 0.286617 -2.054452 0.325143 0.000000 0.000000 0.000000 
-3452.308594 897.716980 1111.214966 -8.579695 2.710253 -1.032688 -0.735796 -0.385070 0.485532 -0.761517 0.034318 -0.144773 -0.743098 -0.072032 0.133678 0.052442 -0.159744 -0.192570 0.000000 0.000000 0.000000 0.953071 2.994396 -1.207370 0.576906 4.971762 4.980741 0.205922 -0.096737 1.744743 0.000000 0.000000 0.000000 2.814114 4.490379 0.492669 -0.234785 3.110863 -5.739887 0.239704 0.797572 1.448376 0.000000 0.000000 0.000000 -0.889995 -0.658046 0.104600 -0.848009 -1.373517 0.549584 -0.823729 -1.556121 0.101900 0.000000 0.000000 0.000000 0.280098 -2.523682 2.753029 0.450280 1.722278 -0.487144 0.342368 -2.071746 0.349716 0.000000 0.000000 0.000000 
-3449.185791 897.677307 1110.927002 -8.645213 3.671444 -1.229930 -0.764611 -0.877542 0.502382 -0.782425 0.055887 -0.130261 -0.765409 -0.120469 0.128249 0.047225 -1.019892 0.074989 0.000000 0.000000 0.000000 1.217934 3.191945 -1.320016 0.613175 5.238599 4.965421 0.243561 0.102695 2.082644 0.000000 0.000000 0.000000 2.669005 4.752003 0.602653 -0.234170 3.382026 -5.761039 0.199418 0.961142 1.045966 0.000000 0.000000 0.000000 -0.920583 -1.436420 0.278310 -0.903030 -1.584776 0.608685 -0.891124 -1.560359 0.073350 0.000000 0.000000 0.000000 0.345691 -3.262770 2.954195 0.525813 1.456741 -0.498364 0.419616 -2.084453 0.382615 0.000000 0.000000 0.000000 
-3445.712402 897.660645 1110.662964 -8.701886 4.471821 -1.403594 -0.785135 -1.285922 0.522286 -0.794919 0.084874 -0.117776 -0.778853 -0.182994 0.127871 0.041734 -1.514465 0.249368 0.000000 0.000000 0.000000 1.431364 3.335268 -1.361417 0.647965 5.413517 4.922966 0.253423 0.474890 2.217388 0.000000 0.000000 0.000000 2.566591 4.892826 0.633632 -0.241043 3.550214 -5.669841 0.197061 1.408242 0.772522 0.000000 0.000000 0.000000 -0.971221 -2.023266 0.411151 -0.969932 -1.783822 0.671315 -0.968378 -1.586802 0.047158 0.000000 0.000000 0.000000 0.416778 -3.779662 3.110196 0.603373 1.147430 -0.479174 0.500875 -2.119163 0.419346 0.000000 0.000000 0.000000 
-3441.929443 897.654114 1110.495972 -8.754414 4.937443 -1.527701 -0.785007 -1.541897 0.547521 -0.789254 0.131806 -0.110437 -0.773443 -0.259809 0.132042 0.029653 -1.340460 0.249522 0.000000 0.000000 0.000000 1.550249 3.384507 -1.281423 0.677519 5.432350 4.845311 0.214068 1.170475 1.988593 0.000000 0.000000 0.000000 2.521370 4.825561 0.528168 -0.256262 3.545742 -5.372023 0.262803 2.368389 0.708874 0.000000 0.000000 0.000000 -1.055586 -2.231400 0.465954 -1.052878 -1.969654 0.742435 -1.058333 -1.651603 0.026884 0.000000 0.000000 0.000000 0.506422 -3.858433 3.186081 0.693587 0.751789 -0.410399 0.597875 -2.197575 0.466878 0.000000 0.000000 0.000000 
-3437.794678 897.669556 1110.353027 -8.797530 5.248826 -1.630029 -0.774281 -1.726688 0.581686 -0.774799 0.183077 -0.107834 -0.758656 -0.335377 0.138946 0.016012 -0.803895 0.150889 0.000000 0.000000 0.000000 1.622697 3.375324 -1.132811 0.706170 5.356506 4.740751 0.151449 2.042558 1.559918 0.000000 0.000000 0.000000 2.514089 4.632817 0.343888 -0.270030 3.436618 -4.956000 0.374414 3.616760 0.774003 0.000000 0.000000 0.000000 -1.158604 -2.256307 0.482311 -1.146261 -2.141470 0.816254 -1.156298 -1.742736 0.011029 0.000000 0.000000 0.000000 0.602828 -3.722326 3.221830 0.787066 0.313222 -0.313509 0.699356 -2.299143 0.518525 0.000000 0.000000 0.000000 
-3433.418945 897.818542 1110.118042 -8.793258 5.578408 -1.728319 -0.771371 -1.766061 0.621846 -0.770980 0.201922 -0.114093 -0.753844 -0.360903 0.145370 0.013314 -0.426253 0.055314 0.000000 0.000000 0.000000 1.620003 3.347723 -1.020468 0.721598 5.260744 4.625625 0.109758 2.535355 1.246793 0.000000 0.000000 0.000000 2.538639 4.451361 0.198002 -0.272720 3.314578 -4.646272 0.465658 4.431949 0.928571 0.000000 0.000000 0.000000 -1.244030 -2.323069 0.498025 -1.228577 -2.229564 0.867820 -1.236495 -1.859754 0.010971 0.000000 0.000000 0.000000 0.656436 -3.662137 3.252468 0.838495 -0.005394 -0.230734 0.756946 -2.401548 0.552275 0.000000 0.000000 0.000000 
-3428.971191 898.188293 1109.760010 -8.717164 5.937650 -1.810226 -0.783457 -1.566594 0.657389 -0.786870 0.171287 -0.129982 -0.767926 -0.319664 0.154137 0.026508 -0.390032 -0.014995 0.000000 0.000000 0.000000 1.485265 3.298188 -1.011349 0.709784 5.163190 4.526417 0.098510 2.342637 1.141240 0.000000 0.000000 0.000000 2.613088 4.316932 0.162748 -0.271077 3.181654 -4.574822 0.507788 4.484162 1.225491 0.000000 0.000000 0.000000 -1.297263 -2.471219 0.504914 -1.289305 -2.192722 0.884076 -1.284990 -2.011981 0.035699 0.000000 0.000000 0.000000 0.641368 -3.741506 3.266494 0.822414 -0.132329 -0.167575 0.745750 -2.491267 0.556627 0.000000 0.000000 0.000000 
-3424.281494 898.692566 1109.308960 -8.593757 6.309829 -1.883734 -0.801018 -1.211350 0.695411 -0.813253 0.111990 -0.153475 -0.791913 -0.241391 0.164875 0.048815 -0.515313 -0.082341 0.000000 0.000000 0.000000 1.270624 3.228126 -1.050717 0.681778 5.050983 4.429937 0.105156 1.771224 1.152781 0.000000 0.000000 0.000000 2.723195 4.199238 0.180653 -0.266426 3.034098 -4.628093 0.522937 4.101823 1.609765 0.000000 0.000000 0.000000 -1.333228 -2.654439 0.507478 -1.338796 -2.073405 0.877069 -1.315386 -2.190374 0.076425 0.000000 0.000000 0.000000 0.583216 -3.889361 3.272149 0.763996 -0.139960 -0.116151 0.691508 -2.585072 0.543805 0.000000 0.000000 0.000000 
-3418.948242 899.179504 1108.741943 -8.460605 6.822611 -1.992158 -0.818731 -0.891872 0.745965 -0.841230 0.059110 -0.175602 -0.817708 -0.162886 0.173757 0.072104 -0.778993 -0.117022 0.000000 0.000000 0.000000 1.112231 3.183719 -1.076049 0.656008 4.959813 4.304552 0.132295 1.186420 1.318212 0.000000 0.000000 0.000000 2.814917 4.140565 0.182445 -0.252300 2.954057 -4.672807 0.510137 3.551764 1.878270 0.000000 0.000000 0.000000 -1.360284 -2.965279 0.558652 -1.386616 -1.929080 0.857268 -1.342885 -2.368640 0.118535 0.000000 0.000000 0.000000 0.508306 -4.190737 3.328116 0.693406 -0.080835 -0.097289 0.622063 -2.704493 0.527359 0.000000 0.000000 0.000000 
-3412.980713 899.576965 1108.017944 -8.319403 7.545771 -2.153034 -0.838342 -0.656989 0.810082 -0.871173 0.024498 -0.192326 -0.845918 -0.107802 0.181566 0.096177 -1.219315 -0.106678 0.000000 0.000000 0.000000 1.068651 3.193577 -1.088218 0.635352 4.922811 4.138357 0.192180 0.599907 1.735618 0.000000 0.000000 0.000000 2.863106 4.179671 0.154237 -0.221083 2.992676 -4.677161 0.455261 2.788321 1.944214 0.000000 0.000000 0.000000 -1.375869 -3.506334 0.692393 -1.438151 -1.713540 0.810979 -1.370797 -2.526368 0.154429 0.000000 0.000000 0.000000 0.412413 -4.746145 3.470378 0.609023 0.091773 -0.134409 0.533452 -2.863400 0.507090 0.000000 0.000000 0.000000 
